<svg width="242" height="96" viewBox="0 0 242 96" fill="none" xmlns="http://www.w3.org/2000/svg">
<path d="M56.8054 94.0701H33.825L36.6653 77.637H0L5.29323 47.7467L41.8294 3.49366H66.359L29.0482 51.4992L27.7572 59.0041H41.5712L44.7988 41.277H66.1008L62.8733 59.0041H75.6545L72.4269 77.637H59.6457L56.8054 94.0701Z" fill="white"/>
<path d="M131.953 0C152.265 0 162.421 9.14391 162.421 27.4317C162.421 30.796 162.077 34.5053 161.388 38.5597L158.29 56.675C156.052 69.8733 151.404 79.7073 144.346 86.177C137.375 92.6468 127.649 95.8816 115.169 95.8816C102.775 95.8816 94.2114 92.6899 89.4776 86.3064C86.293 81.907 84.7008 75.9548 84.7008 68.4499C84.7008 64.8269 85.045 60.9019 85.7336 56.675L88.8321 38.5597C93.3077 12.8532 107.681 0 131.953 0ZM108.198 64.4387C108.198 72.0298 111.683 75.8254 118.655 75.8254C122.958 75.8254 126.444 74.4021 129.112 71.5554C131.866 68.7087 133.889 63.576 135.18 56.1574L138.15 39.0773C138.666 36.2306 138.924 33.7721 138.924 31.7018C138.924 23.9381 135.481 20.0562 128.596 20.0562C119.817 20.2287 114.308 26.5691 112.071 39.0773L108.972 56.1574C108.456 59.3491 108.198 62.1096 108.198 64.4387Z" fill="white"/>
<path d="M222.471 94.0701H199.491L202.331 77.637H165.666L170.959 47.7467L207.495 3.49366H232.025L194.714 51.4992L193.423 59.0041H207.237L210.464 41.277H231.766L228.539 59.0041H241.32L238.092 77.637H225.311L222.471 94.0701Z" fill="white"/>
</svg>
