<svg width="15" height="18" viewBox="0 0 15 18" fill="none" xmlns="http://www.w3.org/2000/svg">
<path d="M11.8035 16.6647C10.8882 17.5442 9.88876 17.4053 8.9267 16.9887C7.9086 16.5628 6.97455 16.5443 5.90041 16.9887C4.55539 17.5627 3.84552 17.396 3.04224 16.6647C-1.51587 12.0078 -0.843365 4.91613 4.33122 4.65691C5.59217 4.72171 6.47017 5.342 7.20806 5.39755C8.31023 5.17536 9.3657 4.53655 10.5426 4.61987C11.953 4.73097 13.0178 5.28646 13.7183 6.28633C10.8041 8.01759 11.4953 11.8227 14.1667 12.8873C13.6343 14.2761 12.9431 15.6555 11.7942 16.6739L11.8035 16.6647ZM7.11466 4.60136C6.97455 2.5368 8.66517 0.833314 10.608 0.666668C10.8788 3.05526 8.42232 4.83281 7.11466 4.60136Z" fill="white"/>
</svg>
