<svg width="20" height="20" viewBox="0 0 20 20" fill="none" xmlns="http://www.w3.org/2000/svg">
<path fill-rule="evenodd" clip-rule="evenodd" d="M12.6348 10.0441C12.6348 11.4991 11.4548 12.6783 9.99989 12.6783C8.54489 12.6783 7.36572 11.4991 7.36572 10.0441C7.36572 8.58835 8.54489 7.40918 9.99989 7.40918C11.4548 7.40918 12.6348 8.58835 12.6348 10.0441Z" stroke="#8F8996" stroke-width="1.25" stroke-linecap="round" stroke-linejoin="round"/>
<path fill-rule="evenodd" clip-rule="evenodd" d="M9.99865 16.1291C13.1719 16.1291 16.0744 13.8474 17.7086 10.0441C16.0744 6.24077 13.1719 3.95911 9.99865 3.95911H10.0019C6.82865 3.95911 3.92615 6.24077 2.29199 10.0441C3.92615 13.8474 6.82865 16.1291 10.0019 16.1291H9.99865Z" stroke="#8F8996" stroke-width="1.25" stroke-linecap="round" stroke-linejoin="round"/>
<path fill-rule="evenodd" clip-rule="evenodd" d="M16.5369 16.5041C16.2932 16.7484 15.8976 16.7489 15.6532 16.5052L3.44224 4.32601C3.19792 4.08232 3.1974 3.68671 3.44109 3.44239V3.44239C3.68478 3.19806 4.08039 3.19755 4.32471 3.44123L16.5357 15.6205C16.78 15.8641 16.7805 16.2598 16.5369 16.5041V16.5041Z" fill="#8F8996"/>
</svg>
