<svg width="18" height="18" viewBox="0 0 18 18" fill="none" xmlns="http://www.w3.org/2000/svg">
<path d="M17.1713 7.36791H16.5001V7.33333H9.00008V10.6667H13.7097C13.0226 12.6071 11.1763 14 9.00008 14C6.23883 14 4.00008 11.7612 4.00008 9C4.00008 6.23875 6.23883 4 9.00008 4C10.2747 4 11.4342 4.48083 12.3172 5.26625L14.6742 2.90916C13.1859 1.52208 11.1951 0.666664 9.00008 0.666664C4.398 0.666664 0.666748 4.39791 0.666748 9C0.666748 13.6021 4.398 17.3333 9.00008 17.3333C13.6022 17.3333 17.3334 13.6021 17.3334 9C17.3334 8.44125 17.2759 7.89583 17.1713 7.36791Z" fill="#FFC107"/>
<path d="M1.62758 5.12125L4.3655 7.12916C5.10633 5.295 6.9005 4 9.00008 4C10.2747 4 11.4342 4.48083 12.3172 5.26625L14.6742 2.90916C13.1859 1.52208 11.1951 0.666664 9.00008 0.666664C5.79925 0.666664 3.02342 2.47375 1.62758 5.12125Z" fill="#FF3D00"/>
<path d="M9.00008 17.3333C11.1526 17.3333 13.1084 16.5096 14.5872 15.17L12.008 12.9875C11.1432 13.6452 10.0865 14.0009 9.00008 14C6.83258 14 4.99216 12.6179 4.29883 10.6892L1.58133 12.7829C2.9605 15.4817 5.76133 17.3333 9.00008 17.3333Z" fill="#4CAF50"/>
<path d="M17.1713 7.36791H16.5001V7.33333H9.00008V10.6667H13.7097C13.381 11.5902 12.789 12.3972 12.0067 12.9879L12.008 12.9875L14.5872 15.17C14.4047 15.3358 17.3334 13.1667 17.3334 9C17.3334 8.44125 17.2759 7.89583 17.1713 7.36791Z" fill="#1976D2"/>
</svg>
