<svg width="18" height="18" viewBox="0 0 18 18" fill="none" xmlns="http://www.w3.org/2000/svg">
<path fill-rule="evenodd" clip-rule="evenodd" d="M9 1.5C13.1421 1.5 16.5 4.85787 16.5 9C16.5 13.1421 13.1421 16.5 9 16.5C4.85787 16.5 1.5 13.1421 1.5 9C1.5 4.85787 4.85787 1.5 9 1.5Z" stroke="white" stroke-width="1.125" stroke-linecap="round" stroke-linejoin="round"/>
<path fill-rule="evenodd" clip-rule="evenodd" d="M11.2875 9.35018C10.7407 9.93968 9.25274 10.9372 8.49149 11.2574C8.36999 11.3084 8.06024 11.4164 7.99349 11.4179C7.85174 11.4224 7.71524 11.3429 7.64924 11.2154C7.62374 11.1659 7.54874 10.8427 7.52474 10.6987C7.45349 10.2607 7.41674 9.58043 7.41749 8.89643C7.41674 8.17868 7.45649 7.46618 7.53599 7.03268C7.55699 6.91568 7.61849 6.64643 7.63649 6.60293C7.67024 6.52193 7.73174 6.45818 7.80599 6.41843C7.86299 6.38768 7.92824 6.37118 7.99349 6.37343C8.06024 6.37493 8.33174 6.47018 8.42474 6.50693C9.15824 6.79193 10.71 7.82543 11.28 8.43293C11.331 8.48768 11.4712 8.63468 11.4945 8.66468C11.5477 8.73218 11.574 8.81393 11.574 8.89643C11.574 8.97293 11.5507 9.05093 11.5027 9.11618C11.478 9.14993 11.3347 9.29993 11.2875 9.35018Z" stroke="white" stroke-width="1.125" stroke-linecap="round" stroke-linejoin="round"/>
</svg>
