<svg width="99" height="113" viewBox="0 0 99 113" fill="none" xmlns="http://www.w3.org/2000/svg">
<path d="M83.0503 57.597C83.0503 57.597 91.5041 52.3518 98.3952 61.9528C98.3453 62.2603 91.6787 59.0933 85.968 63.1913C85.6438 62.7425 83.0503 57.597 83.0503 57.597Z" fill="#272B30"/>
<path d="M75.7188 62.8616C75.7188 62.8616 68.0463 69.1957 74.9374 78.7883C75.245 78.8382 74.3722 71.5066 80.0829 67.4085C79.7587 66.9596 75.7188 62.8616 75.7188 62.8616Z" fill="#272B30"/>
<path d="M28.4617 96.7927C28.4617 96.7927 20.7892 103.127 27.6886 112.719C27.9962 112.769 27.1233 105.438 32.834 101.34C32.5015 100.891 28.4617 96.7927 28.4617 96.7927Z" fill="#272B30"/>
<path d="M35.7686 91.5453C35.7686 91.5453 44.2224 86.3001 51.1135 95.9011C51.0636 96.2086 44.3969 93.0416 38.6863 97.1396C38.3621 96.6825 35.7686 91.5453 35.7686 91.5453Z" fill="#272B30"/>
<path d="M35.7102 93.8983L33.0668 95.4195C33.0668 95.4195 33.3661 95.8435 33.8648 96.5417L33.7152 96.442C33.2663 95.8268 33.0003 95.4611 33.0003 95.4611L30.7144 97.481C30.7144 97.481 31.9779 103.998 43.1665 109.592C41.4458 97.2067 35.7102 93.8983 35.7102 93.8983ZM43.0086 109.368L43.0834 109.468C43.0584 109.443 43.0335 109.409 43.0086 109.368Z" fill="#ECB534"/>
<path d="M82.9587 59.9754L80.3153 61.4966C80.3153 61.4966 80.6146 61.9205 81.1133 62.6188L80.9637 62.519C80.5148 61.9039 80.2488 61.5381 80.2488 61.5381L77.9629 63.5581C77.9629 63.5581 79.2347 70.0751 90.415 75.6694C88.6944 63.2838 82.9587 59.9754 82.9587 59.9754ZM90.2571 75.445L90.3319 75.5447C90.307 75.5198 90.282 75.4865 90.2571 75.445Z" fill="#ECB534"/>
<path d="M63.7573 66.7831L71.9535 47.1074L74.4472 50.5821L65.8936 69.7673L63.7573 66.7831Z" fill="#272B30"/>
<path d="M73.5592 44.0797L65.9629 49.5335L79.2412 68.028L86.8374 62.5741L73.5592 44.0797Z" fill="#FBFBFB"/>
<path d="M73.4654 43.9415C71.9608 41.8468 69.0431 41.3647 66.9401 42.8692C64.8453 44.3738 64.3632 47.2915 65.8678 49.3945L73.4654 43.9415Z" fill="#A24644"/>
<path d="M43.3327 81.4552L22.0693 82.9265L24.5631 86.4012L45.469 84.4311L43.3327 81.4552Z" fill="#272B30"/>
<path d="M26.2809 78.0251L18.6846 83.4799L31.9651 101.974L39.5614 96.5195L26.2809 78.0251Z" fill="#FBFBFB"/>
<path d="M18.5782 83.341C17.0736 81.2463 17.5558 78.3203 19.6505 76.8157C21.7453 75.3111 24.6713 75.7933 26.1758 77.888L18.5782 83.341Z" fill="#A24644"/>
<path d="M0.615234 0.440384C1.2553 1.32982 12.685 17.2483 12.685 17.2483L0.615234 0.440384Z" fill="#A24644"/>
<path d="M13.3 16.8079L12.0698 17.689L0 0.889438L1.23025 0L13.3 16.8079Z" fill="#272B30"/>
<path d="M65.162 79.7757L59.8753 82.8181C59.8753 82.8181 60.4821 83.666 61.4713 85.0708L61.1803 84.8713C60.2909 83.641 59.7589 82.9012 59.7589 82.9012L55.187 86.9411C55.187 86.9411 57.7223 99.9751 80.0996 111.164C76.6416 86.3842 65.162 79.7757 65.162 79.7757ZM79.7588 110.715L79.9001 110.914C79.8585 110.856 79.8087 110.79 79.7588 110.715Z" fill="#ECB534"/>
<path d="M49.1602 84.24C49.3846 84.5476 52.4852 88.8701 52.4852 88.8701L67.8218 77.856C67.8218 77.856 63.6987 72.4362 63.9814 72.5027C64.2557 72.5776 49.1602 84.24 49.1602 84.24Z" fill="#ECB534"/>
<path d="M39.8251 30.7234C32.2275 20.4075 21.097 14.1898 9.30155 12.5356C7.09874 24.2396 9.43455 36.7749 16.7828 47.2736L39.8251 30.7234Z" fill="#C0443A"/>
<path d="M28.9694 39.9335L17.4482 48.2044L46.1929 88.2458L57.7224 79.9665L69.2435 71.6956L40.4905 31.6542L28.9694 39.9335Z" fill="#FBFBFB"/>
<path d="M51.7867 81.264C55.6853 86.692 60.9721 90.5241 66.8074 92.6272C66.6828 86.4177 64.7376 80.1833 60.8474 74.7636C56.9488 69.3355 51.662 65.5118 45.8267 63.4004C45.9513 69.6098 47.8882 75.8442 51.7867 81.264Z" fill="#272B30"/>
<path d="M41.4461 47.4572C43.2998 50.0341 42.7096 53.6251 40.1327 55.4705C37.5558 57.3242 33.9648 56.734 32.1195 54.1571C30.2658 51.5802 30.856 47.9892 33.4328 46.1438C36.0097 44.2985 39.5924 44.8803 41.4461 47.4572Z" fill="#8AC2CB"/>
<path d="M42.4422 58.6944C38.0947 61.8199 32.01 60.8224 28.8845 56.4666C25.759 52.1192 26.7565 46.0344 31.1122 42.9089C35.4597 39.7834 41.5444 40.7809 44.6699 45.1367C47.7954 49.4924 46.7896 55.5689 42.4422 58.6944ZM32.4422 44.7709C29.1089 47.1649 28.3525 51.8116 30.7382 55.1449C33.1322 58.4782 37.7789 59.2347 41.1122 56.849C44.4455 54.455 45.2019 49.8083 42.8163 46.475C40.4223 43.1417 35.7672 42.3769 32.4422 44.7709Z" fill="#A24644"/>
<g opacity="0.4">
<path d="M16.7746 47.273L28.3041 39.0021L9.30166 12.5434C7.09885 24.2391 9.43467 36.7743 16.7746 47.273Z" fill="#272B30"/>
</g>
<g opacity="0.4">
<path d="M28.9656 39.9423L17.4463 48.2127L46.1941 88.2536L57.7134 79.9832L28.9656 39.9423Z" fill="#272B30"/>
</g>
<g opacity="0.4">
<path d="M22.4818 80.7502L18.687 83.4751L31.9676 101.97L35.7623 99.2446L22.4818 80.7502Z" fill="#272B30"/>
</g>
<g opacity="0.4">
<path d="M19.6505 76.8172C17.5558 78.3217 17.0736 81.2394 18.5782 83.3425L22.377 80.616L19.6505 76.8172Z" fill="#272B30"/>
</g>
<g opacity="0.4">
<path d="M73.5658 44.0638L69.771 46.7888L83.0515 65.2832L86.8463 62.5582L73.5658 44.0638Z" fill="#272B30"/>
</g>
<g opacity="0.4">
<path d="M66.9404 42.8692C69.0352 41.3647 71.9612 41.8468 73.4657 43.9415L69.6669 46.668L66.9404 42.8692Z" fill="#272B30"/>
</g>
</svg>
