<svg width="375" height="504" viewBox="0 0 375 504" fill="none" xmlns="http://www.w3.org/2000/svg">
<g opacity="0.4">
<path d="M373.761 188.941C347.962 206.224 320.827 221.206 294.23 237.148" stroke="#444252" stroke-width="5.6045" stroke-miterlimit="1.5" stroke-linecap="round" stroke-linejoin="round"/>
<path d="M272.375 221.764C309.138 204.325 344.104 181.636 378.445 159.904" stroke="#444252" stroke-width="5.6045" stroke-miterlimit="1.5" stroke-linecap="round" stroke-linejoin="round"/>
<path d="M346.975 154.087C338.308 158.825 330.322 164.725 321.878 169.825C306.722 178.978 290.986 186.965 275.358 195.252" stroke="#444252" stroke-width="5.6045" stroke-miterlimit="1.5" stroke-linecap="round" stroke-linejoin="round"/>
<path d="M359.888 146.356C364.22 143.585 368.502 140.7 372.685 137.703" stroke="#444252" stroke-width="5.6045" stroke-miterlimit="1.5" stroke-linecap="round" stroke-linejoin="round"/>
<path d="M298.592 158.406C310.537 151.033 322.776 144.173 334.756 136.875" stroke="#444252" stroke-width="5.6045" stroke-miterlimit="1.5" stroke-linecap="round" stroke-linejoin="round"/>
<path d="M349.569 128.116C352.949 125.868 356.355 123.642 359.692 121.329" stroke="#444252" stroke-width="5.6045" stroke-miterlimit="1.5" stroke-linecap="round" stroke-linejoin="round"/>
<path d="M253.56 160.012C275.164 149.279 295.542 136.331 317 125.412" stroke="#444252" stroke-width="5.6045" stroke-miterlimit="1.5" stroke-linecap="round" stroke-linejoin="round"/>
<path d="M327.098 119.638C328.777 118.701 330.477 117.79 332.122 116.793" stroke="#444252" stroke-width="5.6045" stroke-miterlimit="1.5" stroke-linecap="round" stroke-linejoin="round"/>
<path d="M342.39 84.8181C323.59 99.4472 302.028 112.55 280.98 123.689" stroke="#444252" stroke-width="5.6045" stroke-miterlimit="1.5" stroke-linecap="round" stroke-linejoin="round"/>
<path d="M360.288 70.6992C358.523 72.0142 356.716 73.252 354.865 74.4427" stroke="#444252" stroke-width="5.6045" stroke-miterlimit="1.5" stroke-linecap="round" stroke-linejoin="round"/>
<path d="M49.9873 170.262C34.898 180.37 19.0276 189.133 3.47238 198.457" stroke="#444252" stroke-width="3.27789" stroke-miterlimit="1.5" stroke-linecap="round" stroke-linejoin="round"/>
<path d="M61.2497 163.536C60.1264 164.071 59.0153 164.625 57.9152 165.206" stroke="#444252" stroke-width="3.27789" stroke-miterlimit="1.5" stroke-linecap="round" stroke-linejoin="round"/>
<path d="M-9.31028 189.459C12.1916 179.26 32.6418 165.99 52.7271 153.279" stroke="#444252" stroke-width="3.27789" stroke-miterlimit="1.5" stroke-linecap="round" stroke-linejoin="round"/>
<path d="M69.581 141.282C67.6522 142.628 65.6689 143.836 63.6781 145.081" stroke="#444252" stroke-width="3.27789" stroke-miterlimit="1.5" stroke-linecap="round" stroke-linejoin="round"/>
<path d="M34.3209 149.877C29.2521 152.648 24.581 156.099 19.6425 159.082C10.7782 164.435 1.57484 169.106 -7.56562 173.953" stroke="#444252" stroke-width="3.27789" stroke-miterlimit="1.5" stroke-linecap="round" stroke-linejoin="round"/>
<path d="M41.873 145.356C44.407 143.735 46.9112 142.047 49.3574 140.295" stroke="#444252" stroke-width="3.27789" stroke-miterlimit="1.5" stroke-linecap="round" stroke-linejoin="round"/>
<path d="M6.02324 152.403C13.0098 148.091 20.1675 144.079 27.1745 139.81" stroke="#444252" stroke-width="3.27789" stroke-miterlimit="1.5" stroke-linecap="round" stroke-linejoin="round"/>
<path d="M35.8376 134.688C37.8147 133.373 39.8069 132.071 41.7585 130.718" stroke="#444252" stroke-width="3.27789" stroke-miterlimit="1.5" stroke-linecap="round" stroke-linejoin="round"/>
<path d="M-20.3149 153.343C-7.67939 147.065 4.23948 139.492 16.7892 133.106" stroke="#444252" stroke-width="3.27789" stroke-miterlimit="1.5" stroke-linecap="round" stroke-linejoin="round"/>
<path d="M22.6954 129.729C23.6777 129.181 24.6722 128.648 25.6343 128.065" stroke="#444252" stroke-width="3.27789" stroke-miterlimit="1.5" stroke-linecap="round" stroke-linejoin="round"/>
<path d="M31.6393 109.364C20.644 117.92 8.0328 125.583 -4.27763 132.098" stroke="#444252" stroke-width="3.27789" stroke-miterlimit="1.5" stroke-linecap="round" stroke-linejoin="round"/>
<path d="M42.1075 101.106C41.0747 101.875 40.0184 102.599 38.9357 103.296" stroke="#444252" stroke-width="3.27789" stroke-miterlimit="1.5" stroke-linecap="round" stroke-linejoin="round"/>
<path d="M189.585 42.2516C169.855 55.468 149.104 66.9251 128.766 79.1166" stroke="#444252" stroke-width="4.28591" stroke-miterlimit="1.5" stroke-linecap="round" stroke-linejoin="round"/>
<path d="M204.31 33.4569C202.842 34.1563 201.389 34.8797 199.951 35.6399" stroke="#444252" stroke-width="4.28591" stroke-miterlimit="1.5" stroke-linecap="round" stroke-linejoin="round"/>
<path d="M112.052 67.3515C140.166 54.0159 166.905 36.6648 193.167 20.0455" stroke="#444252" stroke-width="4.28591" stroke-miterlimit="1.5" stroke-linecap="round" stroke-linejoin="round"/>
<path d="M215.204 4.35828C212.682 6.1183 210.089 7.69814 207.486 9.32552" stroke="#444252" stroke-width="4.28591" stroke-miterlimit="1.5" stroke-linecap="round" stroke-linejoin="round"/>
<path d="M169.101 15.5967C162.473 19.2195 156.366 23.7319 149.908 27.6318C138.318 34.6314 126.284 40.7394 114.333 47.0764" stroke="#444252" stroke-width="4.28591" stroke-miterlimit="1.5" stroke-linecap="round" stroke-linejoin="round"/>
<path d="M178.975 9.68521C182.288 7.56603 185.563 5.35988 188.761 3.06784" stroke="#444252" stroke-width="4.28591" stroke-miterlimit="1.5" stroke-linecap="round" stroke-linejoin="round"/>
<path d="M132.101 18.9004C141.236 13.2622 150.595 8.01571 159.757 2.43467" stroke="#444252" stroke-width="4.28591" stroke-miterlimit="1.5" stroke-linecap="round" stroke-linejoin="round"/>
<path d="M171.084 -4.26293C173.669 -5.98177 176.274 -7.68395 178.826 -9.45257" stroke="#444252" stroke-width="4.28591" stroke-miterlimit="1.5" stroke-linecap="round" stroke-linejoin="round"/>
<path d="M97.6633 20.1292C114.184 11.9211 129.769 2.0196 146.178 -6.33026" stroke="#444252" stroke-width="4.28591" stroke-miterlimit="1.5" stroke-linecap="round" stroke-linejoin="round"/>
<path d="M165.595 -37.3743C151.218 -26.187 134.729 -16.1672 118.633 -7.64895" stroke="#444252" stroke-width="4.28591" stroke-miterlimit="1.5" stroke-linecap="round" stroke-linejoin="round"/>
<path d="M381.438 402.039C362.49 414.731 342.562 425.734 323.03 437.442" stroke="#444252" stroke-width="4.11596" stroke-miterlimit="1.5" stroke-linecap="round" stroke-linejoin="round"/>
<path d="M306.979 426.144C333.978 413.337 359.657 396.674 384.878 380.714" stroke="#444252" stroke-width="4.11596" stroke-miterlimit="1.5" stroke-linecap="round" stroke-linejoin="round"/>
<path d="M361.766 376.441C355.401 379.92 349.536 384.254 343.334 387.999C332.204 394.721 320.647 400.587 309.17 406.673" stroke="#444252" stroke-width="4.11596" stroke-miterlimit="1.5" stroke-linecap="round" stroke-linejoin="round"/>
<path d="M371.249 370.764C374.43 368.729 377.575 366.61 380.647 364.409" stroke="#444252" stroke-width="4.11596" stroke-miterlimit="1.5" stroke-linecap="round" stroke-linejoin="round"/>
<path d="M326.233 379.614C335.006 374.199 343.993 369.161 352.792 363.801" stroke="#444252" stroke-width="4.11596" stroke-miterlimit="1.5" stroke-linecap="round" stroke-linejoin="round"/>
<path d="M363.671 357.369C366.153 355.718 368.655 354.084 371.105 352.385" stroke="#444252" stroke-width="4.11596" stroke-miterlimit="1.5" stroke-linecap="round" stroke-linejoin="round"/>
<path d="M293.161 380.794C309.027 372.911 323.993 363.402 339.752 355.384" stroke="#444252" stroke-width="4.11596" stroke-miterlimit="1.5" stroke-linecap="round" stroke-linejoin="round"/>
<path d="M347.168 351.141C348.401 350.453 349.65 349.784 350.858 349.052" stroke="#444252" stroke-width="4.11596" stroke-miterlimit="1.5" stroke-linecap="round" stroke-linejoin="round"/>
<path d="M358.399 325.571C344.592 336.314 328.756 345.937 313.299 354.117" stroke="#444252" stroke-width="4.11596" stroke-miterlimit="1.5" stroke-linecap="round" stroke-linejoin="round"/>
<path d="M371.543 315.202C370.246 316.167 368.92 317.077 367.56 317.951" stroke="#444252" stroke-width="4.11596" stroke-miterlimit="1.5" stroke-linecap="round" stroke-linejoin="round"/>
<path d="M100.137 435.261C75.0211 452.086 48.6051 466.671 22.7135 482.191" stroke="#444252" stroke-width="5.45602" stroke-miterlimit="1.5" stroke-linecap="round" stroke-linejoin="round"/>
<path d="M118.883 424.066C117.014 424.956 115.164 425.877 113.333 426.845" stroke="#444252" stroke-width="5.45602" stroke-miterlimit="1.5" stroke-linecap="round" stroke-linejoin="round"/>
<path d="M1.43706 467.214C37.2268 450.238 71.2658 428.15 104.698 406.993" stroke="#444252" stroke-width="5.45602" stroke-miterlimit="1.5" stroke-linecap="round" stroke-linejoin="round"/>
<path d="M132.751 387.023C129.54 389.263 126.239 391.274 122.925 393.346" stroke="#444252" stroke-width="5.45602" stroke-miterlimit="1.5" stroke-linecap="round" stroke-linejoin="round"/>
<path d="M74.0609 401.329C65.6239 405.941 57.849 411.685 49.6288 416.65C34.8743 425.561 19.5554 433.336 4.34123 441.403" stroke="#444252" stroke-width="5.45602" stroke-miterlimit="1.5" stroke-linecap="round" stroke-linejoin="round"/>
<path d="M86.6312 393.804C90.8491 391.106 95.0172 388.297 99.0889 385.38" stroke="#444252" stroke-width="5.45602" stroke-miterlimit="1.5" stroke-linecap="round" stroke-linejoin="round"/>
<path d="M26.9595 405.535C38.5885 398.358 50.5024 391.679 62.1655 384.574" stroke="#444252" stroke-width="5.45602" stroke-miterlimit="1.5" stroke-linecap="round" stroke-linejoin="round"/>
<path d="M76.5854 376.048C79.8762 373.86 83.1922 371.693 86.4407 369.441" stroke="#444252" stroke-width="5.45602" stroke-miterlimit="1.5" stroke-linecap="round" stroke-linejoin="round"/>
<path d="M-16.8797 407.099C4.15195 396.65 23.9908 384.045 44.8797 373.416" stroke="#444252" stroke-width="5.45602" stroke-miterlimit="1.5" stroke-linecap="round" stroke-linejoin="round"/>
<path d="M54.7098 367.792C56.3449 366.88 58.0002 365.993 59.6016 365.023" stroke="#444252" stroke-width="5.45602" stroke-miterlimit="1.5" stroke-linecap="round" stroke-linejoin="round"/>
<path d="M69.5977 333.897C51.2962 348.138 30.3049 360.894 9.81437 371.737" stroke="#444252" stroke-width="5.45602" stroke-miterlimit="1.5" stroke-linecap="round" stroke-linejoin="round"/>
<path d="M87.0216 320.152C85.3025 321.432 83.5443 322.637 81.7421 323.796" stroke="#444252" stroke-width="5.45602" stroke-miterlimit="1.5" stroke-linecap="round" stroke-linejoin="round"/>
</g>
</svg>
