<svg width="375" height="401" viewBox="0 0 375 401" fill="none" xmlns="http://www.w3.org/2000/svg">
<g opacity="0.2">
<path d="M73.9724 68.0693L74.2178 59.7785L75.2837 68.1116L81.5018 68.6192L75.4952 69.516L75.0722 77.443L73.8371 69.6259L68.0166 69.1691L73.9724 68.0693Z" fill="#ECB534"/>
<path d="M153.505 77.113L153.649 72.4938L154.241 77.1384L157.71 77.426L154.36 77.9167L154.123 82.3413L153.429 77.9844L150.181 77.7221L153.505 77.113Z" fill="#ECB534"/>
<path d="M42.2052 163.608L42.3829 157.508L43.1612 163.633L47.7465 164.014L43.3219 164.665L43.0089 170.503L42.1037 164.75L37.8145 164.411L42.2052 163.608Z" fill="#ECB534"/>
<path d="M329.253 23.7819L329.439 17.6823L330.217 23.8158L334.794 24.188L330.378 24.8479L330.065 30.6768L329.151 24.9325L324.871 24.5941L329.253 23.7819Z" fill="#ECB534"/>
<path d="M261.996 115.809L262.174 109.709L262.96 115.834L267.537 116.215L263.113 116.875L262.8 122.704L261.895 116.959L257.614 116.612L261.996 115.809Z" fill="#ECB534"/>
<path d="M177.329 6.09966L177.515 0L178.294 6.1335L182.87 6.50574L178.454 7.16562L178.141 12.9946L177.228 7.25022L172.947 6.91182L177.329 6.09966Z" fill="#ECB534"/>
<path d="M120.299 331.318L120.477 325.219L121.255 331.352L125.832 331.724L121.416 332.384L121.103 338.213L120.198 332.469L115.909 332.13L120.299 331.318Z" fill="#ECB534"/>
<path d="M348.838 81.216L348.991 76.1653L349.634 81.2413L353.424 81.5544L349.769 82.0958L349.507 86.9265L348.754 82.1719L345.209 81.8843L348.838 81.216Z" fill="#ECB534"/>
<path d="M323.695 185.485L323.805 181.67L324.296 185.511L327.155 185.739L324.389 186.153L324.194 189.8L323.628 186.204L320.946 185.993L323.695 185.485Z" fill="#ECB534"/>
<path d="M287.08 243.513L287.199 239.698L287.681 243.539L290.549 243.767L287.783 244.182L287.588 247.828L287.021 244.232L284.339 244.021L287.08 243.513Z" fill="#ECB534"/>
<path d="M237.175 326.615L237.293 322.8L237.775 326.632L240.643 326.869L237.877 327.283L237.682 330.93L237.115 327.334L234.434 327.123L237.175 326.615Z" fill="#ECB534"/>
<path d="M136.636 262.894L136.805 257.235L137.532 262.928L141.779 263.275L137.676 263.884L137.389 269.299L136.543 263.96L132.566 263.647L136.636 262.894Z" fill="#ECB534"/>
<path d="M32.6708 316.074L32.84 310.406L33.5676 316.1L37.8145 316.446L33.7114 317.056L33.4238 322.47L32.5778 317.14L28.6016 316.819L32.6708 316.074Z" fill="#ECB534"/>
<path d="M15.4039 17.2156C15.2009 17.4186 14.9978 17.6217 14.7948 17.8247C14.3126 18.3069 14.3126 19.136 14.7948 19.6182C15.277 20.1004 16.1061 20.1004 16.5883 19.6182C16.7913 19.4152 16.9944 19.2121 17.1974 19.0091C17.6796 18.5269 17.6796 17.6978 17.1974 17.2156C16.7152 16.7334 15.8861 16.7334 15.4039 17.2156Z" fill="white"/>
<path d="M85.4542 2.05494C85.8603 2.05494 85.8603 1.42044 85.4542 1.42044C85.0481 1.42044 85.0397 2.05494 85.4542 2.05494Z" fill="white"/>
<path d="M308.07 28.1361C308.476 28.1361 308.476 27.5016 308.07 27.5016C307.655 27.5016 307.655 28.1361 308.07 28.1361Z" fill="white"/>
<path d="M318.67 78.1686C318.67 78.3716 318.67 78.5747 318.67 78.7777C318.67 79.1838 319.304 79.1838 319.304 78.7777C319.304 78.5747 319.304 78.3716 319.304 78.1686C319.304 77.7541 318.67 77.7541 318.67 78.1686Z" fill="white"/>
<path d="M307.46 133.685C307.866 133.685 307.866 133.05 307.46 133.05C307.054 133.05 307.054 133.685 307.46 133.685Z" fill="white"/>
<path d="M285.201 193.083C284.795 192.88 284.389 192.677 283.992 192.474C283.628 192.288 283.306 192.838 283.67 193.024C284.076 193.227 284.482 193.43 284.88 193.633C285.252 193.819 285.574 193.269 285.201 193.083Z" fill="white"/>
<path d="M262.572 173.717C262.978 173.717 262.978 173.082 262.572 173.082C262.166 173.082 262.166 173.717 262.572 173.717Z" fill="white"/>
<path d="M95.766 159.768C96.1721 159.768 96.1721 159.133 95.766 159.133C95.3514 159.133 95.3514 159.768 95.766 159.768Z" fill="white"/>
<path d="M141.255 185.24C141.661 185.24 141.661 184.606 141.255 184.606C140.849 184.606 140.849 185.24 141.255 185.24Z" fill="white"/>
<path d="M58.7619 244.401C59.5826 244.401 59.5826 243.132 58.7619 243.132C57.9413 243.132 57.9413 244.401 58.7619 244.401Z" fill="white"/>
<path d="M246.802 257.743C247.623 257.743 247.623 256.474 246.802 256.474C245.981 256.474 245.981 257.743 246.802 257.743Z" fill="white"/>
<path d="M117.601 351.156C118.421 351.156 118.421 349.887 117.601 349.887C116.78 349.887 116.78 351.156 117.601 351.156Z" fill="white"/>
<path d="M212.835 315.373C213.656 315.373 213.656 314.104 212.835 314.104C212.015 314.104 212.015 315.373 212.835 315.373Z" fill="white"/>
<path d="M349.312 348.123C350.133 348.123 350.133 346.854 349.312 346.854C348.5 346.854 348.5 348.123 349.312 348.123Z" fill="white"/>
<path d="M344.464 275.34C345.285 275.34 345.285 274.071 344.464 274.071C343.643 274.071 343.643 275.34 344.464 275.34Z" fill="white"/>
<path d="M300.184 317.799C301.005 317.799 301.005 316.53 300.184 316.53C299.364 316.53 299.364 317.799 300.184 317.799Z" fill="white"/>
<path d="M285.016 346.302C285.837 346.302 285.837 345.033 285.016 345.033C284.204 345.033 284.195 346.302 285.016 346.302Z" fill="white"/>
<path d="M29.6423 359.652C30.4629 359.652 30.4629 358.383 29.6423 358.383C28.8302 358.383 28.8302 359.652 29.6423 359.652Z" fill="white"/>
<path d="M34.4722 252.262C34.4722 252.465 34.4722 252.668 34.4722 252.871C34.4722 253.691 35.7412 253.691 35.7412 252.871C35.7412 252.668 35.7412 252.465 35.7412 252.262C35.7412 251.441 34.4722 251.441 34.4722 252.262Z" fill="white"/>
<path d="M9.02546 179.903C8.82242 179.294 8.61938 178.694 8.41634 178.084C8.16254 177.315 6.93584 177.645 7.18964 178.423C7.39268 179.032 7.59572 179.633 7.79876 180.242C8.06102 181.012 9.28772 180.682 9.02546 179.903Z" fill="white"/>
<path d="M2.3513 86.0796C3.17192 86.0796 3.17192 84.8106 2.3513 84.8106C1.53068 84.8106 1.53068 86.0796 2.3513 86.0796Z" fill="white"/>
<path d="M40.5637 119.448C41.3843 119.448 41.3843 118.179 40.5637 118.179C39.7431 118.179 39.7431 119.448 40.5637 119.448Z" fill="white"/>
<path d="M70.8934 124.58C71.2995 124.58 71.2995 123.946 70.8934 123.946C70.4873 123.946 70.4873 124.58 70.8934 124.58Z" fill="white"/>
<path d="M81.8153 209.504C82.2214 209.504 82.2214 208.869 81.8153 208.869C81.4008 208.869 81.4008 209.504 81.8153 209.504Z" fill="white"/>
<path d="M126.696 219.216C127.102 219.216 127.102 218.582 126.696 218.582C126.29 218.582 126.29 219.216 126.696 219.216Z" fill="white"/>
<path d="M229.814 142.177C230.22 142.177 230.22 141.542 229.814 141.542C229.408 141.542 229.408 142.177 229.814 142.177Z" fill="white"/>
<path d="M294.119 102.138C294.525 102.138 294.525 101.503 294.119 101.503C293.704 101.503 293.704 102.138 294.119 102.138Z" fill="white"/>
<path d="M371.756 139.752C372.162 139.752 372.162 139.117 371.756 139.117C371.35 139.117 371.35 139.752 371.756 139.752Z" fill="white"/>
<path d="M357.197 194.342C357.603 194.342 357.603 193.708 357.197 193.708C356.791 193.708 356.791 194.342 357.197 194.342Z" fill="white"/>
<path d="M244.983 12.717C246.616 12.717 246.616 10.179 244.983 10.179C243.351 10.179 243.351 12.717 244.983 12.717Z" fill="white"/>
<path d="M376.612 60.0236C378.244 60.0236 378.244 57.4856 376.612 57.4856C374.979 57.4856 374.97 60.0236 376.612 60.0236Z" fill="white"/>
<path d="M339.609 137.058C341.242 137.058 341.242 134.52 339.609 134.52C337.976 134.52 337.976 137.058 339.609 137.058Z" fill="white"/>
<path d="M295.938 171.028C297.571 171.028 297.571 168.49 295.938 168.49C294.305 168.49 294.296 171.028 295.938 171.028Z" fill="white"/>
<path d="M355.987 25.447C357.62 25.447 357.62 22.909 355.987 22.909C354.355 22.909 354.355 25.447 355.987 25.447Z" fill="white"/>
<path d="M145.443 238.91C145.443 239.113 145.443 239.316 145.443 239.519C145.443 240.179 146.027 240.822 146.712 240.788C147.398 240.755 147.981 240.23 147.981 239.519C147.981 239.316 147.981 239.113 147.981 238.91C147.981 238.25 147.398 237.608 146.712 237.641C146.027 237.675 145.443 238.2 145.443 238.91Z" fill="white"/>
<path d="M334.464 228.309C334.261 228.512 334.058 228.715 333.855 228.918C333.373 229.4 333.373 230.229 333.855 230.711C334.338 231.194 335.167 231.194 335.649 230.711C335.852 230.508 336.055 230.305 336.258 230.102C336.74 229.62 336.74 228.791 336.258 228.309C335.776 227.818 334.955 227.818 334.464 228.309Z" fill="white"/>
<path d="M160.958 325.946C161.161 325.743 161.364 325.54 161.568 325.337C162.05 324.855 162.05 324.026 161.568 323.544C161.085 323.061 160.256 323.061 159.774 323.544C159.571 323.747 159.368 323.95 159.165 324.153C158.683 324.635 158.683 325.464 159.165 325.946C159.647 326.428 160.476 326.428 160.958 325.946Z" fill="white"/>
<path d="M89.0908 297.2C90.7236 297.2 90.7236 294.662 89.0908 294.662C87.458 294.662 87.458 297.2 89.0908 297.2Z" fill="white"/>
<path d="M60.5806 332.352C61.4012 332.352 61.4012 331.083 60.5806 331.083C59.7684 331.083 59.7599 332.352 60.5806 332.352Z" fill="white"/>
<path d="M233.461 283.165C233.055 283.165 232.649 283.165 232.252 283.165C231.431 283.165 231.431 284.434 232.252 284.434C232.658 284.434 233.064 284.434 233.461 284.434C234.274 284.434 234.274 283.165 233.461 283.165Z" fill="white"/>
<path d="M274.128 209.799C274.128 209.596 274.128 209.393 274.128 209.19C274.128 208.37 272.859 208.37 272.859 209.19C272.859 209.393 272.859 209.596 272.859 209.799C272.859 210.612 274.128 210.612 274.128 209.799Z" fill="white"/>
<path d="M287.444 66.6727C288.264 66.6727 288.264 65.4037 287.444 65.4037C286.623 65.4037 286.623 66.6727 287.444 66.6727Z" fill="white"/>
<path d="M150.959 12.0819C151.779 12.0819 151.779 10.8129 150.959 10.8129C150.147 10.8129 150.147 12.0819 150.959 12.0819Z" fill="white"/>
<path d="M206.161 19.9674C206.981 19.9674 206.981 18.6984 206.161 18.6984C205.348 18.6984 205.34 19.9674 206.161 19.9674Z" fill="white"/>
<path d="M66.1981 31.6161C65.9951 31.8191 65.792 32.0221 65.589 32.2252C65.0137 32.8005 65.9105 33.6972 66.4858 33.1219C66.6888 32.9189 66.8918 32.7159 67.0949 32.5128C67.6702 31.9375 66.7734 31.0408 66.1981 31.6161Z" fill="white"/>
<path d="M43.6008 82.442C44.4214 82.442 44.4214 81.173 43.6008 81.173C42.7802 81.173 42.7802 82.442 43.6008 82.442Z" fill="white"/>
<path d="M4.16918 118.837C4.9898 118.837 4.9898 117.568 4.16918 117.568C3.34856 117.568 3.34856 118.837 4.16918 118.837Z" fill="white"/>
<path d="M28.4325 49.9729C28.8386 49.9729 28.8386 49.3384 28.4325 49.3384C28.0264 49.3384 28.0264 49.9729 28.4325 49.9729Z" fill="white"/>
<path d="M116.391 15.3965C116.797 15.3965 116.797 14.762 116.391 14.762C115.976 14.762 115.976 15.3965 116.391 15.3965Z" fill="white"/>
<path d="M120.875 48.0874C121.281 48.0874 121.281 47.4529 120.875 47.4529C120.461 47.4529 120.461 48.0874 120.875 48.0874Z" fill="white"/>
<path d="M274.703 9.33296C275.11 9.33296 275.11 8.69846 274.703 8.69846C274.297 8.69846 274.297 9.33296 274.703 9.33296Z" fill="white"/>
<path d="M262.572 72.0546C262.978 72.0546 262.978 71.4201 262.572 71.4201C262.166 71.4201 262.166 72.0546 262.572 72.0546Z" fill="white"/>
<path d="M209.798 259.848C210.204 259.848 210.204 259.213 209.798 259.213C209.392 259.213 209.392 259.848 209.798 259.848Z" fill="white"/>
<path d="M274.703 290.178C275.11 290.178 275.11 289.543 274.703 289.543C274.297 289.543 274.297 290.178 274.703 290.178Z" fill="white"/>
<path d="M309.888 250.146C310.294 250.146 310.294 249.511 309.888 249.511C309.482 249.511 309.474 250.146 309.888 250.146Z" fill="white"/>
<path d="M372.974 234.982C373.38 234.982 373.38 234.348 372.974 234.348C372.559 234.348 372.559 234.982 372.974 234.982Z" fill="white"/>
<path d="M346.892 204.655C347.299 204.655 347.299 204.021 346.892 204.021C346.478 204.021 346.478 204.655 346.892 204.655Z" fill="white"/>
<path d="M298.967 288.07C299.788 288.07 299.788 286.801 298.967 286.801C298.155 286.801 298.155 288.07 298.967 288.07Z" fill="white"/>
<path d="M334.76 315.373C335.581 315.373 335.581 314.104 334.76 314.104C333.94 314.104 333.94 315.373 334.76 315.373Z" fill="white"/>
<path d="M248.012 357.831C248.833 357.831 248.833 356.562 248.012 356.562C247.2 356.562 247.2 357.831 248.012 357.831Z" fill="white"/>
<path d="M184.324 348.123C185.145 348.123 185.145 346.854 184.324 346.854C183.504 346.854 183.504 348.123 184.324 348.123Z" fill="white"/>
<path d="M320.861 353.559C320.861 353.432 320.861 353.305 320.861 353.187C320.861 351.554 318.323 351.554 318.323 353.187C318.323 353.314 318.323 353.441 318.323 353.559C318.323 355.192 320.861 355.192 320.861 353.559C320.861 353.432 320.861 353.305 320.861 353.187C320.861 351.554 318.323 351.554 318.323 353.187C318.323 353.314 318.323 353.441 318.323 353.559C318.323 355.192 320.861 355.192 320.861 353.559Z" fill="white"/>
<path d="M369.937 346.936C371.57 346.936 371.57 344.398 369.937 344.398C368.305 344.398 368.305 346.936 369.937 346.936Z" fill="white"/>
<path d="M250.44 229.867C252.073 229.867 252.073 227.329 250.44 227.329C248.807 227.329 248.807 229.867 250.44 229.867Z" fill="white"/>
<path d="M325.658 108.44C325.455 108.44 325.252 108.44 325.049 108.44C324.389 108.44 323.746 109.024 323.78 109.709C323.813 110.394 324.338 110.978 325.049 110.978C325.252 110.978 325.455 110.978 325.658 110.978C326.318 110.978 326.961 110.394 326.927 109.709C326.893 109.024 326.368 108.44 325.658 108.44Z" fill="white"/>
<path d="M360.234 83.0765C361.867 83.0765 361.867 80.5385 360.234 80.5385C358.601 80.5385 358.601 83.0765 360.234 83.0765Z" fill="white"/>
<path d="M329.296 9.68021C330.929 9.68021 330.929 7.14221 329.296 7.14221C327.663 7.14221 327.663 9.68021 329.296 9.68021Z" fill="white"/>
<path d="M244.983 73.6185C246.616 73.6185 246.616 71.0805 244.983 71.0805C243.35 71.0805 243.35 73.6185 244.983 73.6185Z" fill="white"/>
<path d="M103.651 100.066C105.283 100.066 105.283 97.528 103.651 97.528C102.018 97.528 102.009 100.066 103.651 100.066Z" fill="white"/>
<path d="M126.906 80.4897C128.539 80.4897 128.539 77.9517 126.906 77.9517C125.273 77.9517 125.273 80.4897 126.906 80.4897Z" fill="white"/>
<path d="M269.856 46.0747C271.488 46.0747 271.488 43.5367 269.856 43.5367C268.223 43.5367 268.214 46.0747 269.856 46.0747Z" fill="white"/>
<path d="M130.342 164.363C131.975 164.363 131.975 161.825 130.342 161.825C128.709 161.825 128.701 164.363 130.342 164.363Z" fill="white"/>
<path d="M234.67 154.048C236.303 154.048 236.303 151.51 234.67 151.51C233.037 151.51 233.037 154.048 234.67 154.048Z" fill="white"/>
<path d="M104.92 245.587C104.92 245.384 104.92 245.181 104.92 244.978C104.92 244.318 104.336 243.675 103.651 243.709C102.966 243.743 102.382 244.267 102.382 244.978C102.382 245.181 102.382 245.384 102.382 245.587C102.382 246.247 102.966 246.89 103.651 246.856C104.336 246.822 104.92 246.298 104.92 245.587Z" fill="white"/>
<path d="M15.6914 235.931C17.3242 235.931 17.3242 233.393 15.6914 233.393C14.0586 233.393 14.0586 235.931 15.6914 235.931Z" fill="white"/>
<path d="M27.2229 101.884C28.8557 101.884 28.8557 99.3463 27.2229 99.3463C25.5901 99.3463 25.5816 101.884 27.2229 101.884Z" fill="white"/>
<path d="M74.3368 184.633C74.3368 184.446 74.3368 184.26 74.3368 184.066C74.3368 183.406 73.7531 182.763 73.0678 182.797C72.3826 182.831 71.7988 183.355 71.7988 184.066C71.7988 184.252 71.7988 184.438 71.7988 184.633C71.7988 185.292 72.3826 185.935 73.0678 185.902C73.7531 185.868 74.3368 185.343 74.3368 184.633Z" fill="white"/>
<path d="M333.906 382.18L334.075 376.512L334.803 382.205L339.05 382.552L334.947 383.161L334.659 388.576L333.813 383.246L329.837 382.925L333.906 382.18Z" fill="#ECB534"/>
<path d="M66.646 389.98C67.4666 389.98 67.4666 388.711 66.646 388.711C65.8338 388.711 65.8254 389.98 66.646 389.98Z" fill="white"/>
<path d="M288.053 399.685C288.874 399.685 288.874 398.416 288.053 398.416C287.232 398.416 287.232 399.685 288.053 399.685Z" fill="white"/>
<path d="M1.19083 399.658C1.19083 399.455 1.19083 399.252 1.19083 399.049C1.19083 398.389 0.607092 397.746 -0.0781679 397.78C-0.763428 397.814 -1.34717 398.338 -1.34717 399.049C-1.34717 399.252 -1.34717 399.455 -1.34717 399.658C-1.34717 400.318 -0.763428 400.961 -0.0781679 400.927C0.607092 400.893 1.19083 400.369 1.19083 399.658Z" fill="white"/>
<path d="M307.46 368.145C308.281 368.145 308.281 366.876 307.46 366.876C306.64 366.876 306.64 368.145 307.46 368.145Z" fill="white"/>
<path d="M222.344 38.1467C222.75 38.1467 222.75 37.5122 222.344 37.5122C221.93 37.5122 221.93 38.1467 222.344 38.1467Z" fill="white"/>
<path d="M145.249 119.124C145.655 119.124 145.655 118.49 145.249 118.49C144.843 118.49 144.843 119.124 145.249 119.124Z" fill="white"/>
<path d="M235.297 112.644C235.703 112.644 235.703 112.009 235.297 112.009C234.891 112.009 234.891 112.644 235.297 112.644Z" fill="white"/>
<path d="M148.488 62.114C148.894 62.114 148.894 61.4795 148.488 61.4795C148.082 61.4795 148.082 62.114 148.488 62.114Z" fill="white"/>
<path d="M130.35 107.468C130.756 107.468 130.756 106.833 130.35 106.833C129.944 106.833 129.944 107.468 130.35 107.468Z" fill="white"/>
<path d="M175.654 278.225C177.287 278.225 177.287 275.687 175.654 275.687C174.021 275.687 174.021 278.225 175.654 278.225Z" fill="white"/>
<path d="M368.297 231C369.93 231 369.93 228.462 368.297 228.462C366.664 228.462 366.656 231 368.297 231Z" fill="white"/>
<path d="M96.6876 366.725C95.8585 366.302 95.0379 365.887 94.2088 365.464C93.5997 365.151 92.8299 365.303 92.4745 365.921C92.1446 366.488 92.3138 367.342 92.9314 367.655C93.7605 368.078 94.5811 368.493 95.4102 368.916C96.0193 369.229 96.7891 369.077 97.1445 368.459C97.4744 367.892 97.2967 367.038 96.6876 366.725Z" fill="white"/>
<path d="M66.2822 280.71C67.915 280.71 67.915 278.172 66.2822 278.172C64.6494 278.172 64.6494 280.71 66.2822 280.71Z" fill="white"/>
</g>
</svg>
