<svg width="375" height="401" viewBox="0 0 375 401" fill="none" xmlns="http://www.w3.org/2000/svg">
<g opacity="0.2">
<path d="M79.9724 68.0693L80.2178 59.7785L81.2837 68.1116L87.5018 68.6192L81.4952 69.516L81.0722 77.443L79.8371 69.6259L74.0166 69.1691L79.9724 68.0693Z" fill="#ECB534"/>
<path d="M159.505 77.113L159.649 72.4938L160.241 77.1384L163.71 77.426L160.36 77.9167L160.123 82.3413L159.429 77.9844L156.181 77.7221L159.505 77.113Z" fill="#ECB534"/>
<path d="M48.2052 163.608L48.3829 157.508L49.1612 163.633L53.7465 164.014L49.3219 164.665L49.0089 170.503L48.1037 164.75L43.8145 164.411L48.2052 163.608Z" fill="#ECB534"/>
<path d="M335.253 23.7819L335.439 17.6823L336.217 23.8158L340.794 24.188L336.378 24.8479L336.065 30.6768L335.151 24.9325L330.871 24.5941L335.253 23.7819Z" fill="#ECB534"/>
<path d="M267.996 115.809L268.174 109.709L268.96 115.834L273.537 116.215L269.113 116.875L268.8 122.704L267.895 116.959L263.614 116.612L267.996 115.809Z" fill="#ECB534"/>
<path d="M183.329 6.09966L183.515 0L184.294 6.1335L188.87 6.50574L184.454 7.16562L184.141 12.9946L183.228 7.25022L178.947 6.91182L183.329 6.09966Z" fill="#ECB534"/>
<path d="M126.299 331.318L126.477 325.219L127.255 331.352L131.832 331.724L127.416 332.384L127.103 338.213L126.198 332.469L121.909 332.13L126.299 331.318Z" fill="#ECB534"/>
<path d="M354.838 81.216L354.991 76.1653L355.634 81.2413L359.424 81.5544L355.769 82.0958L355.507 86.9265L354.754 82.1719L351.209 81.8843L354.838 81.216Z" fill="#ECB534"/>
<path d="M329.695 185.485L329.805 181.67L330.296 185.511L333.155 185.739L330.389 186.153L330.194 189.8L329.628 186.204L326.946 185.993L329.695 185.485Z" fill="#ECB534"/>
<path d="M1.701 256.863L1.81944 253.048L2.31012 256.88L5.1696 257.117L2.40318 257.523L2.2086 261.178L1.64178 257.582L-1.04004 257.371L1.701 256.863Z" fill="#ECB534"/>
<path d="M293.08 243.513L293.199 239.698L293.681 243.539L296.549 243.767L293.783 244.182L293.588 247.828L293.021 244.232L290.339 244.021L293.08 243.513Z" fill="#ECB534"/>
<path d="M243.175 326.615L243.293 322.8L243.775 326.632L246.643 326.869L243.877 327.283L243.682 330.93L243.115 327.334L240.434 327.123L243.175 326.615Z" fill="#ECB534"/>
<path d="M142.636 262.894L142.805 257.235L143.532 262.928L147.779 263.275L143.676 263.884L143.389 269.299L142.543 263.96L138.566 263.647L142.636 262.894Z" fill="#ECB534"/>
<path d="M38.6708 316.074L38.84 310.406L39.5676 316.1L43.8145 316.446L39.7114 317.056L39.4238 322.47L38.5778 317.14L34.6016 316.819L38.6708 316.074Z" fill="#ECB534"/>
<path d="M21.4039 17.2156C21.2009 17.4186 20.9978 17.6217 20.7948 17.8247C20.3126 18.3069 20.3126 19.136 20.7948 19.6182C21.277 20.1004 22.1061 20.1004 22.5883 19.6182C22.7913 19.4152 22.9944 19.2121 23.1974 19.0091C23.6796 18.5269 23.6796 17.6978 23.1974 17.2156C22.7152 16.7334 21.8861 16.7334 21.4039 17.2156Z" fill="white"/>
<path d="M91.4542 2.05494C91.8603 2.05494 91.8603 1.42044 91.4542 1.42044C91.0481 1.42044 91.0397 2.05494 91.4542 2.05494Z" fill="white"/>
<path d="M314.07 28.1361C314.476 28.1361 314.476 27.5016 314.07 27.5016C313.655 27.5016 313.655 28.1361 314.07 28.1361Z" fill="white"/>
<path d="M324.67 78.1686C324.67 78.3716 324.67 78.5747 324.67 78.7777C324.67 79.1838 325.304 79.1838 325.304 78.7777C325.304 78.5747 325.304 78.3716 325.304 78.1686C325.304 77.7541 324.67 77.7541 324.67 78.1686Z" fill="white"/>
<path d="M313.46 133.685C313.866 133.685 313.866 133.05 313.46 133.05C313.054 133.05 313.054 133.685 313.46 133.685Z" fill="white"/>
<path d="M291.201 193.083C290.795 192.88 290.389 192.677 289.992 192.474C289.628 192.288 289.306 192.838 289.67 193.024C290.076 193.227 290.482 193.43 290.88 193.633C291.252 193.819 291.574 193.269 291.201 193.083Z" fill="white"/>
<path d="M268.572 173.717C268.978 173.717 268.978 173.082 268.572 173.082C268.166 173.082 268.166 173.717 268.572 173.717Z" fill="white"/>
<path d="M101.766 159.768C102.172 159.768 102.172 159.133 101.766 159.133C101.351 159.133 101.351 159.768 101.766 159.768Z" fill="white"/>
<path d="M147.255 185.24C147.661 185.24 147.661 184.606 147.255 184.606C146.849 184.606 146.849 185.24 147.255 185.24Z" fill="white"/>
<path d="M64.7619 244.401C65.5826 244.401 65.5826 243.132 64.7619 243.132C63.9413 243.132 63.9413 244.401 64.7619 244.401Z" fill="white"/>
<path d="M252.802 257.743C253.623 257.743 253.623 256.474 252.802 256.474C251.981 256.474 251.981 257.743 252.802 257.743Z" fill="white"/>
<path d="M123.601 351.156C124.421 351.156 124.421 349.887 123.601 349.887C122.78 349.887 122.78 351.156 123.601 351.156Z" fill="white"/>
<path d="M218.835 315.373C219.656 315.373 219.656 314.104 218.835 314.104C218.015 314.104 218.015 315.373 218.835 315.373Z" fill="white"/>
<path d="M355.312 348.123C356.133 348.123 356.133 346.854 355.312 346.854C354.5 346.854 354.5 348.123 355.312 348.123Z" fill="white"/>
<path d="M350.464 275.34C351.285 275.34 351.285 274.071 350.464 274.071C349.643 274.071 349.643 275.34 350.464 275.34Z" fill="white"/>
<path d="M306.184 317.799C307.005 317.799 307.005 316.53 306.184 316.53C305.364 316.53 305.364 317.799 306.184 317.799Z" fill="white"/>
<path d="M291.016 346.302C291.837 346.302 291.837 345.033 291.016 345.033C290.204 345.033 290.195 346.302 291.016 346.302Z" fill="white"/>
<path d="M35.6423 359.652C36.4629 359.652 36.4629 358.383 35.6423 358.383C34.8302 358.383 34.8302 359.652 35.6423 359.652Z" fill="white"/>
<path d="M40.4722 252.262C40.4722 252.465 40.4722 252.668 40.4722 252.871C40.4722 253.691 41.7412 253.691 41.7412 252.871C41.7412 252.668 41.7412 252.465 41.7412 252.262C41.7412 251.441 40.4722 251.441 40.4722 252.262Z" fill="white"/>
<path d="M15.0255 179.903C14.8224 179.294 14.6194 178.694 14.4163 178.084C14.1625 177.315 12.9358 177.645 13.1896 178.423C13.3927 179.032 13.5957 179.633 13.7988 180.242C14.061 181.012 15.2877 180.682 15.0255 179.903Z" fill="white"/>
<path d="M8.3513 86.0796C9.17192 86.0796 9.17192 84.8106 8.3513 84.8106C7.53068 84.8106 7.53068 86.0796 8.3513 86.0796Z" fill="white"/>
<path d="M46.5637 119.448C47.3843 119.448 47.3843 118.179 46.5637 118.179C45.7431 118.179 45.7431 119.448 46.5637 119.448Z" fill="white"/>
<path d="M76.8934 124.58C77.2995 124.58 77.2995 123.946 76.8934 123.946C76.4873 123.946 76.4873 124.58 76.8934 124.58Z" fill="white"/>
<path d="M87.8153 209.504C88.2214 209.504 88.2214 208.869 87.8153 208.869C87.4008 208.869 87.4008 209.504 87.8153 209.504Z" fill="white"/>
<path d="M132.696 219.216C133.102 219.216 133.102 218.582 132.696 218.582C132.29 218.582 132.29 219.216 132.696 219.216Z" fill="white"/>
<path d="M235.814 142.177C236.22 142.177 236.22 141.542 235.814 141.542C235.408 141.542 235.408 142.177 235.814 142.177Z" fill="white"/>
<path d="M300.119 102.138C300.525 102.138 300.525 101.503 300.119 101.503C299.704 101.503 299.704 102.138 300.119 102.138Z" fill="white"/>
<path d="M363.197 194.342C363.603 194.342 363.603 193.708 363.197 193.708C362.791 193.708 362.791 194.342 363.197 194.342Z" fill="white"/>
<path d="M250.983 12.717C252.616 12.717 252.616 10.179 250.983 10.179C249.351 10.179 249.351 12.717 250.983 12.717Z" fill="white"/>
<path d="M345.609 137.058C347.242 137.058 347.242 134.52 345.609 134.52C343.976 134.52 343.976 137.058 345.609 137.058Z" fill="white"/>
<path d="M301.938 171.028C303.571 171.028 303.571 168.49 301.938 168.49C300.305 168.49 300.296 171.028 301.938 171.028Z" fill="white"/>
<path d="M361.987 25.447C363.62 25.447 363.62 22.909 361.987 22.909C360.355 22.909 360.355 25.447 361.987 25.447Z" fill="white"/>
<path d="M151.443 238.91C151.443 239.113 151.443 239.316 151.443 239.519C151.443 240.179 152.027 240.822 152.712 240.788C153.398 240.755 153.981 240.23 153.981 239.519C153.981 239.316 153.981 239.113 153.981 238.91C153.981 238.25 153.398 237.608 152.712 237.641C152.027 237.675 151.443 238.2 151.443 238.91Z" fill="white"/>
<path d="M340.464 228.309C340.261 228.512 340.058 228.715 339.855 228.918C339.373 229.4 339.373 230.229 339.855 230.711C340.338 231.194 341.167 231.194 341.649 230.711C341.852 230.508 342.055 230.305 342.258 230.102C342.74 229.62 342.74 228.791 342.258 228.309C341.776 227.818 340.955 227.818 340.464 228.309Z" fill="white"/>
<path d="M166.958 325.946C167.161 325.743 167.364 325.54 167.568 325.337C168.05 324.855 168.05 324.026 167.568 323.544C167.085 323.061 166.256 323.061 165.774 323.544C165.571 323.747 165.368 323.95 165.165 324.153C164.683 324.635 164.683 325.464 165.165 325.946C165.647 326.428 166.476 326.428 166.958 325.946Z" fill="white"/>
<path d="M95.0908 297.2C96.7236 297.2 96.7236 294.662 95.0908 294.662C93.458 294.662 93.458 297.2 95.0908 297.2Z" fill="white"/>
<path d="M66.5806 332.352C67.4012 332.352 67.4012 331.083 66.5806 331.083C65.7684 331.083 65.7599 332.352 66.5806 332.352Z" fill="white"/>
<path d="M239.461 283.165C239.055 283.165 238.649 283.165 238.252 283.165C237.431 283.165 237.431 284.434 238.252 284.434C238.658 284.434 239.064 284.434 239.461 284.434C240.274 284.434 240.274 283.165 239.461 283.165Z" fill="white"/>
<path d="M280.128 209.799C280.128 209.596 280.128 209.393 280.128 209.19C280.128 208.37 278.859 208.37 278.859 209.19C278.859 209.393 278.859 209.596 278.859 209.799C278.859 210.612 280.128 210.612 280.128 209.799Z" fill="white"/>
<path d="M293.444 66.6727C294.264 66.6727 294.264 65.4037 293.444 65.4037C292.623 65.4037 292.623 66.6727 293.444 66.6727Z" fill="white"/>
<path d="M156.959 12.0819C157.779 12.0819 157.779 10.8129 156.959 10.8129C156.147 10.8129 156.147 12.0819 156.959 12.0819Z" fill="white"/>
<path d="M212.161 19.9674C212.981 19.9674 212.981 18.6984 212.161 18.6984C211.348 18.6984 211.34 19.9674 212.161 19.9674Z" fill="white"/>
<path d="M72.1981 31.6161C71.9951 31.8191 71.792 32.0222 71.589 32.2252C71.0137 32.8005 71.9105 33.6972 72.4858 33.122C72.6888 32.9189 72.8918 32.7159 73.0949 32.5128C73.6702 31.9376 72.7734 31.0408 72.1981 31.6161Z" fill="white"/>
<path d="M49.6008 82.442C50.4214 82.442 50.4214 81.173 49.6008 81.173C48.7802 81.173 48.7802 82.442 49.6008 82.442Z" fill="white"/>
<path d="M10.1692 118.837C10.9898 118.837 10.9898 117.568 10.1692 117.568C9.34856 117.568 9.34856 118.837 10.1692 118.837Z" fill="white"/>
<path d="M34.4325 49.9729C34.8386 49.9729 34.8386 49.3384 34.4325 49.3384C34.0264 49.3384 34.0264 49.9729 34.4325 49.9729Z" fill="white"/>
<path d="M122.391 15.3965C122.797 15.3965 122.797 14.762 122.391 14.762C121.976 14.762 121.976 15.3965 122.391 15.3965Z" fill="white"/>
<path d="M126.875 48.0874C127.281 48.0874 127.281 47.4529 126.875 47.4529C126.461 47.4529 126.461 48.0874 126.875 48.0874Z" fill="white"/>
<path d="M280.703 9.33297C281.11 9.33297 281.11 8.69847 280.703 8.69847C280.297 8.69847 280.297 9.33297 280.703 9.33297Z" fill="white"/>
<path d="M268.572 72.0546C268.978 72.0546 268.978 71.4201 268.572 71.4201C268.166 71.4201 268.166 72.0546 268.572 72.0546Z" fill="white"/>
<path d="M215.798 259.848C216.204 259.848 216.204 259.213 215.798 259.213C215.392 259.213 215.392 259.848 215.798 259.848Z" fill="white"/>
<path d="M280.703 290.178C281.11 290.178 281.11 289.543 280.703 289.543C280.297 289.543 280.297 290.178 280.703 290.178Z" fill="white"/>
<path d="M315.888 250.146C316.294 250.146 316.294 249.511 315.888 249.511C315.482 249.511 315.474 250.146 315.888 250.146Z" fill="white"/>
<path d="M352.892 204.655C353.299 204.655 353.299 204.021 352.892 204.021C352.478 204.021 352.478 204.655 352.892 204.655Z" fill="white"/>
<path d="M304.967 288.07C305.788 288.07 305.788 286.801 304.967 286.801C304.155 286.801 304.155 288.07 304.967 288.07Z" fill="white"/>
<path d="M340.76 315.373C341.581 315.373 341.581 314.104 340.76 314.104C339.94 314.104 339.94 315.373 340.76 315.373Z" fill="white"/>
<path d="M254.012 357.831C254.833 357.831 254.833 356.562 254.012 356.562C253.2 356.562 253.2 357.831 254.012 357.831Z" fill="white"/>
<path d="M190.324 348.123C191.145 348.123 191.145 346.854 190.324 346.854C189.504 346.854 189.504 348.123 190.324 348.123Z" fill="white"/>
<path d="M326.861 353.559C326.861 353.432 326.861 353.305 326.861 353.187C326.861 351.554 324.323 351.554 324.323 353.187C324.323 353.314 324.323 353.441 324.323 353.559C324.323 355.192 326.861 355.192 326.861 353.559C326.861 353.432 326.861 353.305 326.861 353.187C326.861 351.554 324.323 351.554 324.323 353.187C324.323 353.314 324.323 353.441 324.323 353.559C324.323 355.192 326.861 355.192 326.861 353.559Z" fill="white"/>
<path d="M375.937 346.936C377.57 346.936 377.57 344.398 375.937 344.398C374.305 344.398 374.305 346.936 375.937 346.936Z" fill="white"/>
<path d="M256.44 229.867C258.073 229.867 258.073 227.329 256.44 227.329C254.807 227.329 254.807 229.867 256.44 229.867Z" fill="white"/>
<path d="M331.658 108.44C331.455 108.44 331.252 108.44 331.049 108.44C330.389 108.44 329.746 109.024 329.78 109.709C329.813 110.394 330.338 110.978 331.049 110.978C331.252 110.978 331.455 110.978 331.658 110.978C332.318 110.978 332.961 110.394 332.927 109.709C332.893 109.024 332.368 108.44 331.658 108.44Z" fill="white"/>
<path d="M366.234 83.0765C367.867 83.0765 367.867 80.5385 366.234 80.5385C364.601 80.5385 364.601 83.0765 366.234 83.0765Z" fill="white"/>
<path d="M335.296 9.68023C336.929 9.68023 336.929 7.14223 335.296 7.14223C333.663 7.14223 333.663 9.68023 335.296 9.68023Z" fill="white"/>
<path d="M250.983 73.6185C252.616 73.6185 252.616 71.0805 250.983 71.0805C249.35 71.0805 249.35 73.6185 250.983 73.6185Z" fill="white"/>
<path d="M109.651 100.066C111.283 100.066 111.283 97.5279 109.651 97.5279C108.018 97.5279 108.009 100.066 109.651 100.066Z" fill="white"/>
<path d="M132.906 80.4897C134.539 80.4897 134.539 77.9517 132.906 77.9517C131.273 77.9517 131.273 80.4897 132.906 80.4897Z" fill="white"/>
<path d="M275.856 46.0747C277.488 46.0747 277.488 43.5367 275.856 43.5367C274.223 43.5367 274.214 46.0747 275.856 46.0747Z" fill="white"/>
<path d="M136.342 164.363C137.975 164.363 137.975 161.825 136.342 161.825C134.709 161.825 134.701 164.363 136.342 164.363Z" fill="white"/>
<path d="M240.67 154.048C242.303 154.048 242.303 151.51 240.67 151.51C239.037 151.51 239.037 154.048 240.67 154.048Z" fill="white"/>
<path d="M110.92 245.587C110.92 245.384 110.92 245.181 110.92 244.978C110.92 244.318 110.336 243.675 109.651 243.709C108.966 243.743 108.382 244.267 108.382 244.978C108.382 245.181 108.382 245.384 108.382 245.587C108.382 246.247 108.966 246.89 109.651 246.856C110.336 246.822 110.92 246.298 110.92 245.587Z" fill="white"/>
<path d="M21.6914 235.931C23.3242 235.931 23.3242 233.393 21.6914 233.393C20.0586 233.393 20.0586 235.931 21.6914 235.931Z" fill="white"/>
<path d="M33.2229 101.884C34.8557 101.884 34.8557 99.3463 33.2229 99.3463C31.5901 99.3463 31.5816 101.884 33.2229 101.884Z" fill="white"/>
<path d="M80.3368 184.633C80.3368 184.446 80.3368 184.26 80.3368 184.066C80.3368 183.406 79.7531 182.763 79.0678 182.797C78.3826 182.831 77.7988 183.355 77.7988 184.066C77.7988 184.252 77.7988 184.438 77.7988 184.633C77.7988 185.292 78.3826 185.935 79.0678 185.902C79.7531 185.868 80.3368 185.343 80.3368 184.633Z" fill="white"/>
<path d="M339.906 382.18L340.075 376.512L340.803 382.205L345.05 382.552L340.947 383.161L340.659 388.576L339.813 383.246L335.837 382.925L339.906 382.18Z" fill="#ECB534"/>
<path d="M72.646 389.98C73.4666 389.98 73.4666 388.711 72.646 388.711C71.8338 388.711 71.8254 389.98 72.646 389.98Z" fill="white"/>
<path d="M294.053 399.685C294.874 399.685 294.874 398.416 294.053 398.416C293.232 398.416 293.232 399.685 294.053 399.685Z" fill="white"/>
<path d="M7.19083 399.658C7.19083 399.455 7.19083 399.252 7.19083 399.049C7.19083 398.389 6.60709 397.746 5.92183 397.78C5.23657 397.814 4.65283 398.338 4.65283 399.049C4.65283 399.252 4.65283 399.455 4.65283 399.658C4.65283 400.318 5.23657 400.961 5.92183 400.927C6.60709 400.893 7.19083 400.369 7.19083 399.658Z" fill="white"/>
<path d="M313.46 368.145C314.281 368.145 314.281 366.876 313.46 366.876C312.64 366.876 312.64 368.145 313.46 368.145Z" fill="white"/>
<path d="M228.344 38.1467C228.75 38.1467 228.75 37.5122 228.344 37.5122C227.93 37.5122 227.93 38.1467 228.344 38.1467Z" fill="white"/>
<path d="M151.249 119.124C151.655 119.124 151.655 118.49 151.249 118.49C150.843 118.49 150.843 119.124 151.249 119.124Z" fill="white"/>
<path d="M241.297 112.644C241.703 112.644 241.703 112.009 241.297 112.009C240.891 112.009 240.891 112.644 241.297 112.644Z" fill="white"/>
<path d="M154.488 62.114C154.894 62.114 154.894 61.4795 154.488 61.4795C154.082 61.4795 154.082 62.114 154.488 62.114Z" fill="white"/>
<path d="M136.35 107.468C136.756 107.468 136.756 106.833 136.35 106.833C135.944 106.833 135.944 107.468 136.35 107.468Z" fill="white"/>
<path d="M181.654 278.225C183.287 278.225 183.287 275.687 181.654 275.687C180.021 275.687 180.021 278.225 181.654 278.225Z" fill="white"/>
<path d="M374.297 231C375.93 231 375.93 228.462 374.297 228.462C372.664 228.462 372.656 231 374.297 231Z" fill="white"/>
<path d="M102.688 366.725C101.859 366.302 101.038 365.887 100.209 365.464C99.5997 365.151 98.8299 365.303 98.4745 365.921C98.1446 366.488 98.3138 367.342 98.9314 367.655C99.7605 368.078 100.581 368.493 101.41 368.916C102.019 369.229 102.789 369.077 103.144 368.459C103.474 367.892 103.297 367.038 102.688 366.725Z" fill="white"/>
<path d="M72.2822 280.71C73.915 280.71 73.915 278.172 72.2822 278.172C70.6494 278.172 70.6494 280.71 72.2822 280.71Z" fill="white"/>
</g>
</svg>
