<svg width="30" height="30" viewBox="0 0 30 30" fill="none" xmlns="http://www.w3.org/2000/svg">
<path fill-rule="evenodd" clip-rule="evenodd" d="M3.75 15C3.75 8.78679 8.78679 3.75 15 3.75C21.2132 3.75 26.25 8.78679 26.25 15C26.25 21.2132 21.2132 26.25 15 26.25C8.78679 26.25 3.75 21.2132 3.75 15ZM5.02235 13.662C4.96422 14.0998 4.93421 14.5464 4.93421 15C4.93421 16.4159 5.22654 17.7634 5.75413 18.9857C5.99094 18.8843 6.1855 18.8028 6.33712 18.7416L6.33715 18.7415C8.40262 17.9071 10.1299 17.6197 11.3615 18.1632C11.8848 18.3941 12.2588 18.6995 12.5191 19.0579C12.7765 19.4123 12.8983 19.7852 12.9682 20.1127C13.0028 20.2751 13.0257 20.4314 13.0442 20.568C13.0486 20.6002 13.0527 20.6308 13.0566 20.6601C13.0702 20.7612 13.0815 20.8462 13.0957 20.9284C13.1345 21.1525 13.1735 21.2029 13.1805 21.2101L13.1805 21.2101C13.2282 21.2601 13.3203 21.3195 13.5042 21.3931C13.5923 21.4283 13.686 21.4612 13.7953 21.4995L13.7974 21.5002C13.9028 21.5371 14.0233 21.5794 14.1417 21.6274C14.372 21.7209 14.6577 21.8601 14.8842 22.1033C15.1299 22.3671 15.266 22.7091 15.266 23.1231C15.266 23.7399 15.1181 24.3888 14.8435 25.0646C14.8956 25.0654 14.9477 25.0658 15 25.0658C15.9642 25.0658 16.8967 24.9302 17.7795 24.6771C18.3365 23.7285 18.7495 22.9113 19.025 22.2224C19.3175 21.4915 19.4396 20.9429 19.4396 20.5539C19.4396 20.3862 19.37 20.2178 19.1592 19.9852C18.9923 19.8012 18.79 19.6307 18.5402 19.4203C18.4467 19.3416 18.3466 19.2572 18.2392 19.1644C17.4901 18.5174 16.5936 17.6188 16.4578 16.0453L17.0478 15.9944L16.4578 16.0454C16.4578 16.0454 16.4578 16.0454 16.4578 16.0453C16.3829 15.1765 16.7118 14.518 17.2788 14.0746C17.8074 13.6613 18.5044 13.463 19.1554 13.3631C20.173 13.2069 21.3264 13.2675 21.9304 13.2992C22.0717 13.3066 22.1829 13.3124 22.2553 13.3136C22.2532 13.3153 22.2514 13.3167 22.2499 13.3178C22.2458 13.3192 22.244 13.3206 22.244 13.3209C22.2441 13.3212 22.2461 13.3205 22.2499 13.3178C22.2553 13.3159 22.2648 13.3138 22.2786 13.3138C22.2714 13.3138 22.2636 13.3137 22.2553 13.3136C22.2669 13.3037 22.287 13.2822 22.3134 13.2386C22.3805 13.1275 22.4348 12.9444 22.4319 12.7331C22.4289 12.5256 22.3714 12.3332 22.2666 12.1879C22.1689 12.0525 22.0087 11.9269 21.7292 11.8707L21.8459 11.2902L21.7292 11.8707C21.7292 11.8707 21.7292 11.8707 21.7292 11.8707C21.1187 11.748 20.7122 11.8631 20.2317 11.9992C20.1784 12.0143 20.1243 12.0296 20.0688 12.0449C19.7933 12.1209 19.4636 12.2005 19.091 12.1836C18.7065 12.1662 18.3171 12.0491 17.899 11.7976L18.2041 11.2902L17.8989 11.7976C17.7062 11.6817 17.5381 11.5206 17.4271 11.3062C17.3161 11.0922 17.2813 10.8623 17.2964 10.6388C17.325 10.2146 17.5351 9.77448 17.8196 9.34505C18.3239 8.58389 19.2086 7.64298 20.4405 6.5297C18.8717 5.52 17.0043 4.93421 15 4.93421C14.0357 4.93421 13.1031 5.06981 12.2201 5.32298C12.9388 5.3654 13.5557 5.46538 14.0651 5.62831C14.6374 5.81138 15.1255 6.09005 15.4543 6.50653C15.7945 6.9374 15.9163 7.45488 15.8585 8.00777L15.8585 8.0078C15.7797 8.76148 15.5059 9.29508 15.0413 9.64233C14.6175 9.95916 14.1008 10.0619 13.7159 10.1372C13.6965 10.141 13.6773 10.1448 13.6584 10.1485C13.2564 10.2269 12.9545 10.2858 12.6933 10.4252C12.4577 10.5509 12.2367 10.7552 12.0814 11.1968C11.8263 11.9224 12.1763 12.366 12.6808 13.0054C12.7276 13.0648 12.7758 13.1259 12.8249 13.189C13.0616 13.493 13.4232 13.9739 13.3679 14.5603C13.3094 15.1802 12.828 15.6547 12.1411 16.0728C11.4121 16.5166 10.7433 16.6856 10.1286 16.5299C9.5222 16.3762 9.11674 15.9424 8.83043 15.5265C8.61884 15.2192 8.42961 14.8536 8.26567 14.5369C8.21336 14.4358 8.16362 14.3397 8.11655 14.252C7.89561 13.8406 7.72593 13.5974 7.56382 13.4821M9.49328 6.5727C7.4751 7.89414 5.96044 9.921 5.29961 12.303C6.44372 11.9507 7.46264 11.9574 8.24989 12.5169L8.2499 12.5169C8.66522 12.8121 8.94672 13.2949 9.15983 13.6917C9.22655 13.816 9.2884 13.9354 9.34789 14.0502C9.50189 14.3475 9.64004 14.6142 9.80581 14.855C10.0284 15.1783 10.2238 15.3323 10.4195 15.3819C10.6068 15.4294 10.9411 15.417 11.5254 15.0613C12.1519 14.6799 12.1866 14.4735 12.1889 14.4491C12.1944 14.3912 12.1615 14.2647 11.8905 13.9164C11.8486 13.8626 11.8013 13.8045 11.7505 13.7421C11.2713 13.1533 10.48 12.1812 10.9643 10.804C11.2162 10.0875 11.6341 9.64806 12.1359 9.38037C12.5615 9.15334 13.0327 9.06277 13.3939 8.99334C13.4264 8.98711 13.4579 8.98104 13.4885 8.97506C13.9053 8.8935 14.156 8.82559 14.3323 8.69383C14.4679 8.59249 14.6269 8.39957 14.6807 7.8847C14.7113 7.59188 14.6464 7.39417 14.5249 7.24038C14.3921 7.07221 14.1436 6.89675 13.7043 6.75622C12.8463 6.48178 11.4619 6.4031 9.49328 6.5727ZM5.02235 13.662C6.34177 13.1144 7.12523 13.1704 7.5638 13.4821ZM21.4169 7.24446C23.6459 9.09076 25.0658 11.8796 25.0658 15C25.0658 18.9398 22.8023 22.351 19.5047 24.004C19.7518 23.5242 19.9587 23.0768 20.1245 22.6623C20.4413 21.8704 20.6238 21.16 20.6238 20.5539C20.6238 19.9754 20.3492 19.5347 20.0365 19.1898C19.8113 18.9413 19.5201 18.6963 19.2511 18.47C19.1689 18.4008 19.0887 18.3334 19.0132 18.2682C18.328 17.6764 17.7324 17.0415 17.6377 15.9435L17.6377 15.9435C17.5974 15.4766 17.7542 15.2062 18.0082 15.0075C18.3007 14.7788 18.7601 14.6219 19.3351 14.5336C20.208 14.3996 21.1158 14.4458 21.7455 14.4778C21.9594 14.4887 22.1412 14.498 22.2786 14.498C22.782 14.498 23.1332 14.1718 23.3271 13.8508C23.5243 13.5242 23.6216 13.1168 23.6159 12.7164C23.6103 12.3122 23.4989 11.8719 23.2269 11.495C22.9479 11.1083 22.5234 10.8225 21.9627 10.7097L21.9626 10.7097C21.0596 10.5282 20.3972 10.7188 19.9086 10.8594C19.8549 10.8748 19.8033 10.8897 19.7538 10.9034C19.501 10.9731 19.3214 11.0087 19.1446 11.0007C18.9798 10.9932 18.7797 10.9454 18.5093 10.7828L18.5093 10.7828C18.4922 10.7725 18.4832 10.7649 18.4789 10.7607C18.4778 10.7544 18.4764 10.7412 18.4779 10.7184C18.4857 10.6033 18.5596 10.3723 18.8068 9.9991C19.2517 9.32761 20.1088 8.41226 21.4169 7.24446ZM18.4801 10.7654C18.4801 10.7654 18.4799 10.7649 18.4796 10.7637ZM13.5926 24.9682C13.9309 24.253 14.0818 23.6408 14.0818 23.1231C14.0818 22.9892 14.0463 22.9412 14.0175 22.9103C13.9695 22.8587 13.8778 22.7983 13.6964 22.7247C13.6088 22.6892 13.5149 22.656 13.4058 22.6178L13.3932 22.6134C13.2919 22.5779 13.1767 22.5375 13.0641 22.4925C12.8362 22.4013 12.5507 22.2655 12.3236 22.0275C12.0557 21.7467 11.973 21.3856 11.9289 21.1303C11.9104 21.0233 11.895 20.9085 11.8811 20.804C11.8776 20.7778 11.8742 20.7523 11.8708 20.7277C11.8531 20.5975 11.8351 20.4771 11.81 20.3597C11.7605 20.1275 11.6877 19.9283 11.5609 19.7538C11.4371 19.5832 11.2374 19.4028 10.8834 19.2466C10.1306 18.9144 8.81547 19.0175 6.78073 19.8395C6.65253 19.8913 6.48849 19.9598 6.28804 20.0453C7.80658 22.6618 10.47 24.5313 13.5926 24.9682Z" fill="white"/>
</svg>
