<svg width="14" height="14" viewBox="0 0 14 14" fill="none" xmlns="http://www.w3.org/2000/svg">
<path fill-rule="evenodd" clip-rule="evenodd" d="M1.75 7C1.75 4.1005 4.1005 1.75 7 1.75C9.8995 1.75 12.25 4.1005 12.25 7C12.25 9.8995 9.8995 12.25 7 12.25C4.1005 12.25 1.75 9.8995 1.75 7ZM2.34376 6.37562C2.31663 6.57989 2.30263 6.78831 2.30263 7C2.30263 7.66074 2.43905 8.28961 2.68526 8.85999C2.79577 8.81268 2.88657 8.77465 2.95732 8.74606L2.95734 8.74606C3.92122 8.35665 4.7273 8.22254 5.30203 8.47615C5.54624 8.58392 5.72076 8.72642 5.84223 8.89367C5.96236 9.05907 6.01922 9.23308 6.05182 9.38591C6.06799 9.46171 6.07864 9.53467 6.08731 9.59838C6.08936 9.61344 6.09127 9.62772 6.09309 9.64136C6.0994 9.68857 6.10471 9.72825 6.11135 9.76661C6.12943 9.87118 6.14765 9.89467 6.15088 9.89805L6.15089 9.89806C6.17315 9.9214 6.21612 9.94909 6.30194 9.98343C6.34306 9.99989 6.3868 10.0152 6.43779 10.0331L6.43878 10.0334C6.48797 10.0507 6.54422 10.0704 6.59944 10.0928C6.70693 10.1364 6.84027 10.2014 6.94596 10.3149C7.06061 10.438 7.12412 10.5976 7.12412 10.7908C7.12412 11.0786 7.05514 11.3814 6.92698 11.6968C6.95128 11.6972 6.97562 11.6974 7 11.6974C7.44995 11.6974 7.88512 11.6341 8.29711 11.516C8.55703 11.0733 8.74975 10.692 8.87836 10.3705C9.01481 10.0294 9.07181 9.77335 9.07181 9.59184C9.07181 9.51355 9.03935 9.43497 8.94096 9.32644C8.86309 9.24054 8.76866 9.161 8.65211 9.06282C8.60848 9.02606 8.56174 8.98669 8.51161 8.94339C8.16202 8.64148 7.74369 8.2221 7.68033 7.48783L7.95562 7.46407L7.68033 7.48783C7.68033 7.48783 7.68033 7.48783 7.68033 7.48783C7.64533 7.08238 7.79882 6.77508 8.06343 6.56816C8.31012 6.37526 8.63538 6.28275 8.93921 6.23611C9.41407 6.16322 9.95233 6.19148 10.2342 6.20629C10.3001 6.20975 10.352 6.21248 10.3858 6.213C10.3848 6.21383 10.384 6.21448 10.3833 6.21498C10.3814 6.21564 10.3805 6.21626 10.3805 6.2164C10.3806 6.21655 10.3815 6.21621 10.3833 6.21498C10.3858 6.21408 10.3902 6.21309 10.3967 6.21309C10.3933 6.21309 10.3897 6.21306 10.3858 6.213C10.3912 6.20841 10.4006 6.19837 10.4129 6.17801C10.4442 6.12616 10.4696 6.0407 10.4682 5.94211C10.4668 5.84528 10.44 5.75549 10.3911 5.68771C10.3455 5.62449 10.2707 5.56588 10.1403 5.53966L10.1948 5.26876L10.1403 5.53966C10.1403 5.53966 10.1403 5.53966 10.1403 5.53966C9.8554 5.48238 9.66569 5.53611 9.44147 5.59961C9.41661 5.60665 9.39132 5.61381 9.36543 5.62096C9.23688 5.65643 9.083 5.69357 8.90915 5.6857C8.72969 5.67758 8.54799 5.62293 8.35284 5.50555L8.49526 5.26876L8.35283 5.50554C8.26291 5.45145 8.18447 5.37626 8.13263 5.27625C8.08086 5.17637 8.0646 5.06909 8.07164 4.96476C8.08499 4.7668 8.18306 4.56142 8.31583 4.36102C8.55116 4.00582 8.96404 3.56672 9.53889 3.04719C8.8068 2.576 7.93533 2.30263 7 2.30263C6.54999 2.30263 6.11476 2.36591 5.70272 2.48406C6.03809 2.50385 6.32601 2.55051 6.5637 2.62654C6.83078 2.71198 7.05856 2.84202 7.21203 3.03638C7.37079 3.23745 7.42759 3.47894 7.40063 3.73696L7.40063 3.73697C7.36387 4.08869 7.23608 4.3377 7.01929 4.49975C6.82149 4.64761 6.58036 4.69556 6.40075 4.73071C6.3917 4.73248 6.38275 4.73423 6.37391 4.73595C6.18631 4.77257 6.04545 4.80006 5.92352 4.8651C5.81357 4.92375 5.71047 5.01907 5.63801 5.22516C5.51895 5.56377 5.68228 5.7708 5.9177 6.06921C5.93955 6.09691 5.96203 6.12541 5.98496 6.15486C6.09541 6.29675 6.26417 6.52115 6.23835 6.79482C6.21105 7.08408 5.9864 7.30555 5.66587 7.50066C5.32563 7.70777 5.01352 7.78662 4.72666 7.71393C4.4437 7.64222 4.25448 7.43978 4.12087 7.24571C4.02213 7.1023 3.93382 6.93168 3.85731 6.78387C3.8329 6.7367 3.80969 6.69185 3.78772 6.65095C3.68462 6.45896 3.60544 6.34545 3.52978 6.29167M4.4302 3.06726C3.48838 3.68393 2.78154 4.6298 2.47315 5.74139C3.00707 5.57697 3.48256 5.5801 3.84995 5.84123L3.84995 5.84123C4.04377 5.979 4.17514 6.2043 4.27459 6.38948C4.30572 6.44746 4.33459 6.50318 4.36235 6.55677C4.43422 6.69551 4.49868 6.81996 4.57604 6.93232C4.67992 7.08319 4.77112 7.1551 4.86242 7.17823C4.94984 7.20039 5.10585 7.19458 5.37852 7.02861C5.6709 6.85063 5.68709 6.75428 5.68816 6.74289C5.69071 6.71591 5.67538 6.65684 5.54888 6.49432C5.52933 6.46921 5.50726 6.44209 5.48355 6.41297C5.25992 6.13822 4.89067 5.68458 5.11666 5.04185C5.23423 4.70749 5.42924 4.50243 5.66342 4.3775C5.86203 4.27156 6.08192 4.22929 6.25049 4.19689C6.26564 4.19398 6.28037 4.19115 6.29464 4.18836C6.48916 4.1503 6.60615 4.11861 6.68842 4.05712C6.75168 4.00983 6.82588 3.9198 6.85099 3.67953C6.86526 3.54288 6.83496 3.45062 6.7783 3.37885C6.71633 3.30036 6.60035 3.21848 6.39533 3.1529C5.99496 3.02483 5.3489 2.98811 4.4302 3.06726ZM2.34376 6.37562C2.95949 6.12006 3.32511 6.14619 3.52978 6.29166L2.34376 6.37562ZM9.99457 3.38075C11.0347 4.24236 11.6974 5.5438 11.6974 7C11.6974 8.8386 10.6411 10.4305 9.1022 11.2019C9.21749 10.9779 9.31408 10.7692 9.39146 10.5757C9.53929 10.2062 9.62444 9.87468 9.62444 9.59184C9.62444 9.32188 9.49629 9.11619 9.35039 8.95526C9.24525 8.83929 9.10937 8.72496 8.98383 8.61933C8.94547 8.58706 8.90808 8.5556 8.87282 8.52515C8.55305 8.24898 8.27513 7.95272 8.23091 7.44032L8.23091 7.44031C8.2121 7.22241 8.28529 7.09621 8.40385 7.0035C8.54033 6.89677 8.75473 6.82353 9.02306 6.78234C9.43038 6.71982 9.85403 6.74137 10.1479 6.75632C10.2477 6.7614 10.3326 6.76572 10.3967 6.76572C10.6316 6.76572 10.7955 6.61349 10.886 6.4637C10.978 6.31132 11.0234 6.12118 11.0208 5.93433C11.0181 5.74571 10.9661 5.5402 10.8392 5.36432C10.709 5.18388 10.5109 5.05049 10.2492 4.99787L10.2492 4.99787C9.82784 4.91315 9.51869 5.00211 9.29069 5.06772C9.26563 5.07493 9.24156 5.08185 9.21842 5.08824C9.10045 5.12079 9.01665 5.13737 8.93413 5.13364C8.85722 5.13016 8.76386 5.10788 8.63769 5.03198L8.63768 5.03198C8.6297 5.02718 8.62548 5.02362 8.6235 5.02167C8.62295 5.01872 8.6223 5.01256 8.62302 5.00194C8.62664 4.94818 8.66113 4.84042 8.77653 4.66624C8.98414 4.35289 9.38412 3.92572 9.99457 3.38075ZM8.62406 5.02384C8.62406 5.02387 8.62395 5.02363 8.6238 5.02307L8.62406 5.02384ZM6.34323 11.6518C6.50109 11.318 6.57149 11.0324 6.57149 10.7908C6.57149 10.7283 6.55495 10.7059 6.54151 10.6915C6.51911 10.6674 6.47632 10.6392 6.39165 10.6049C6.35079 10.5883 6.30696 10.5728 6.25606 10.555L6.25016 10.5529C6.20289 10.5364 6.14913 10.5175 6.0966 10.4965C5.99022 10.4539 5.85698 10.3906 5.75103 10.2795C5.62602 10.1485 5.58741 9.97995 5.5668 9.8608C5.55817 9.8109 5.55102 9.75732 5.54451 9.70854C5.54288 9.69632 5.54129 9.68441 5.53973 9.67292C5.53146 9.61217 5.52303 9.55598 5.51135 9.50119C5.48823 9.39283 5.45424 9.29986 5.39509 9.21843C5.33729 9.13884 5.24411 9.05464 5.07892 8.98175C4.7276 8.82672 4.11389 8.87484 3.16434 9.25845C3.10452 9.28263 3.02796 9.31459 2.93442 9.35449C3.64307 10.5755 4.88601 11.4479 6.34323 11.6518Z" fill="#FFD400"/>
</svg>
