<svg width="14" height="14" viewBox="0 0 14 14" fill="none" xmlns="http://www.w3.org/2000/svg">
<path d="M2.58204 6.32073C3.94267 4.70385 5.49128 3.9375 7 3.9375C8.50872 3.9375 10.0573 4.70385 11.418 6.32073C11.5943 6.53027 11.8961 6.54726 12.092 6.35869C12.2879 6.17012 12.3038 5.84739 12.1275 5.63785C10.6245 3.85179 8.83218 2.91666 7 2.91666C5.16782 2.91666 3.37552 3.85179 1.87251 5.63785C1.69619 5.84739 1.71208 6.17012 1.90801 6.35869C2.10394 6.54726 2.40571 6.53027 2.58204 6.32073Z" fill="#FF00F7"/>
<path d="M4.49112 8.36241C5.27902 7.42617 6.15945 7.00013 7 7.00013C7.84055 7.00013 8.72098 7.42617 9.50888 8.36241C9.68521 8.57194 9.98699 8.58893 10.1829 8.40035C10.3788 8.21177 10.3947 7.88904 10.2184 7.67951C9.28811 6.57408 8.16399 5.97929 7 5.97929C5.83601 5.97929 4.71189 6.57408 3.78161 7.67951C3.60528 7.88904 3.62116 8.21177 3.81709 8.40035C4.01301 8.58893 4.31479 8.57194 4.49112 8.36241Z" fill="#FF00F7"/>
<path d="M7 9.04166C6.47282 9.04166 6.04546 9.49871 6.04546 10.0625C6.04546 10.6263 6.47282 11.0833 7 11.0833C7.52718 11.0833 7.95455 10.6263 7.95455 10.0625C7.95455 9.49871 7.52718 9.04166 7 9.04166Z" fill="#FF00F7"/>
</svg>
