<svg width="20" height="20" viewBox="0 0 20 20" fill="none" xmlns="http://www.w3.org/2000/svg">
<path d="M3.68863 9.02963C5.63239 6.71979 7.84468 5.62501 10 5.62501C12.1553 5.62501 14.3676 6.71979 16.3114 9.02963C16.5633 9.32896 16.9944 9.35324 17.2743 9.08385C17.5542 8.81446 17.5769 8.35342 17.325 8.05408C15.1778 5.50256 12.6174 4.16667 10 4.16667C7.3826 4.16667 4.82217 5.50256 2.67502 8.05408C2.42312 8.35342 2.44582 8.81446 2.72572 9.08385C3.00562 9.35324 3.43673 9.32896 3.68863 9.02963Z" fill="white"/>
<path d="M6.41589 11.9463C7.54146 10.6088 8.79921 10.0002 10 10.0002C11.2008 10.0002 12.4585 10.6088 13.5841 11.9463C13.836 12.2456 14.2671 12.2699 14.547 12.0005C14.8269 11.7311 14.8496 11.2701 14.5977 10.9707C13.2687 9.39156 11.6628 8.54185 10 8.54185C8.33715 8.54185 6.73127 9.39156 5.4023 10.9707C5.1504 11.2701 5.17309 11.7311 5.45298 12.0005C5.73288 12.2699 6.16398 12.2456 6.41589 11.9463Z" fill="white"/>
<path d="M10 12.9167C9.24689 12.9167 8.63636 13.5696 8.63636 14.375C8.63636 15.1804 9.24689 15.8333 10 15.8333C10.7531 15.8333 11.3636 15.1804 11.3636 14.375C11.3636 13.5696 10.7531 12.9167 10 12.9167Z" fill="white"/>
</svg>
